HIERARCHY
ROOT Hips
{
	OFFSET -0.001795 -0.223333 0.028219
	CHANNELS 6 Xposition Yposition Zposition Zrotation Yrotation Xrotation 
	JOINT LeftUpLeg
	{
		OFFSET 0.069520 -0.091406 -0.006815
		CHANNELS 3 Zrotation Yrotation Xrotation
		JOINT LeftLeg
		{
			OFFSET 0.034277 -0.375199 -0.004496
			CHANNELS 3 Zrotation Yrotation Xrotation
			JOINT LeftFoot
			{
				OFFSET -0.013596 -0.397961 -0.043693
				CHANNELS 3 Zrotation Yrotation Xrotation
				JOINT LeftToe
				{
					OFFSET 0.026358 -0.055791 0.119288
					CHANNELS 3 Zrotation Yrotation Xrotation
					End Site
					{
						OFFSET 0.000000 0.000000 0.000000
					}
				}
			}
		}
	}
	JOINT RightUpLeg
	{
		OFFSET -0.067670 -0.090522 -0.004320
		CHANNELS 3 Zrotation Yrotation Xrotation
		JOINT RightLeg
		{
			OFFSET -0.038290 -0.382569 -0.008850
			CHANNELS 3 Zrotation Yrotation Xrotation
			JOINT RightFoot
			{
				OFFSET 0.015774 -0.398415 -0.042312
				CHANNELS 3 Zrotation Yrotation Xrotation
				JOINT RightToe
				{
					OFFSET -0.025372 -0.048144 0.123348
					CHANNELS 3 Zrotation Yrotation Xrotation
					End Site
					{
						OFFSET 0.000000 0.000000 0.000000
					}
				}
			}
		}
	}
	JOINT Spine
	{
		OFFSET -0.002533 0.108963 -0.026696
		CHANNELS 3 Zrotation Yrotation Xrotation
		JOINT Spine1
		{
			OFFSET 0.005487 0.135180 0.001092
			CHANNELS 3 Zrotation Yrotation Xrotation
			JOINT Spine2
			{
				OFFSET 0.001457 0.052922 0.025425
				CHANNELS 3 Zrotation Yrotation Xrotation
				JOINT Neck
				{
					OFFSET -0.002778 0.213870 -0.042857
					CHANNELS 3 Zrotation Yrotation Xrotation
					JOINT Head
					{
						OFFSET 0.005152 0.064970 0.051349
						CHANNELS 3 Zrotation Yrotation Xrotation
						End Site
						{
							OFFSET 0.000000 0.000000 0.000000
						}
					}
				}
				JOINT LeftShoulder
				{
					OFFSET 0.078845 0.121749 -0.034090
					CHANNELS 3 Zrotation Yrotation Xrotation
					JOINT LeftArm
					{
						OFFSET 0.090977 0.030469 -0.008868
						CHANNELS 3 Zrotation Yrotation Xrotation
						JOINT LeftForeArm
						{
							OFFSET 0.259612 -0.012772 -0.027456
							CHANNELS 3 Zrotation Yrotation Xrotation
							JOINT LeftHand
							{
								OFFSET 0.249234 0.008986 -0.001171
								CHANNELS 3 Zrotation Yrotation Xrotation
								End Site
								{
									OFFSET 0.000000 0.000000 0.000000
								}
							}
						}
					}
				}
				JOINT RightShoulder
				{
					OFFSET -0.081759 0.118833 -0.038615
					CHANNELS 3 Zrotation Yrotation Xrotation
					JOINT RightArm
					{
						OFFSET -0.096012 0.032551 -0.009143
						CHANNELS 3 Zrotation Yrotation Xrotation
						JOINT RightForeArm
						{
							OFFSET -0.253742 -0.013329 -0.021401
							CHANNELS 3 Zrotation Yrotation Xrotation
							JOINT RightHand
							{
								OFFSET -0.255298 0.007772 -0.005559
								CHANNELS 3 Zrotation Yrotation Xrotation
								End Site
								{
									OFFSET 0.000000 0.000000 0.000000
								}
							}
						}
					}
				}
			}
		}
	}
}
MOTION
Frames: 13
Frame Time: 0.050000
0.000000 0.986078 0.000000 -0.531279 -1.056321 0.438099 5.914945 -0.242880 -4.539698 -8.336971 0.178027 -20.390735 59.613736 27.739761 111.586537 0.000000 0.000000 0.000000 -0.165070 0.713376 -7.186730 3.870125 -0.461138 -15.163364 -67.752233 -29.179346 118.020897 0.000000 0.000000 0.000000 1.284062 -0.340583 6.364900 2.135371 1.120300 -46.484008 -1.402023 1.735778 47.543534 2.792163 3.342639 -81.739912 0.000000 0.000000 0.000000 -20.279645 0.703170 -0.827837 -46.275317 -13.867732 -4.922484 -5.681709 34.718882 -2.360485 0.000000 0.000000 0.000000 13.330209 -2.098342 -1.023775 58.160467 9.868159 -5.963938 -5.492116 -39.836021 2.659480 0.000000 0.000000 0.000000 
0.000346 0.987185 -0.002014 -0.634724 -2.219908 1.001297 6.355066 -0.262955 -5.738084 -7.241722 0.343436 -19.055098 54.875366 26.705561 113.437364 0.000000 0.000000 0.000000 -0.647535 0.833469 -8.591666 4.903951 -0.397135 -14.440751 -65.608283 -28.788236 117.325593 0.000000 0.000000 0.000000 0.681344 -0.261719 5.522934 3.907487 1.005602 -44.321294 -1.567013 3.625991 45.132220 0.632517 3.340853 -79.812365 0.000000 0.000000 0.000000 -19.657937 0.798805 -1.286035 -48.426061 -13.377357 -4.749301 -4.834662 35.993254 -2.252633 0.000000 0.000000 0.000000 13.285021 -2.882620 -1.323703 60.397168 8.711324 -6.114739 -7.174544 -39.486161 3.365323 0.000000 0.000000 0.000000 
0.000675 0.988333 -0.004106 -0.376721 -3.049114 -0.131103 5.501133 -0.259529 -5.425171 -6.870013 0.414668 -18.236957 62.911806 26.941093 115.985286 0.000000 0.000000 0.000000 -0.806108 0.783207 -8.146520 4.934206 -0.375940 -14.104904 -62.402969 -28.657837 115.701985 0.000000 0.000000 0.000000 1.287378 -0.301084 5.727023 1.138731 1.173183 -43.396882 0.193669 2.727344 44.810001 -3.778803 3.729918 -79.872734 0.000000 0.000000 0.000000 -19.710869 0.404566 -0.735502 -49.626612 -13.532462 -4.784929 -2.848964 36.675092 -1.439865 0.000000 0.000000 0.000000 12.986511 -1.433268 -0.785941 59.202687 9.210379 -5.890848 -3.156379 -44.571564 2.013795 0.000000 0.000000 0.000000 
0.000899 0.988124 -0.006649 -0.377450 -4.282482 0.240020 5.997185 -0.261399 -6.450065 -6.872623 0.466361 -18.707192 61.191609 26.389073 117.823703 0.000000 0.000000 0.000000 -0.266394 0.910806 -9.152033 5.089866 -0.329657 -14.136344 -64.629008 -28.250420 116.592614 0.000000 0.000000 0.000000 1.328928 -0.238813 4.411729 1.473608 1.168881 -42.293371 0.216799 3.374299 44.719302 -2.293328 3.650611 -79.011599 0.000000 0.000000 0.000000 -20.477289 2.242622 -1.790093 -50.003467 -11.361708 -5.650159 -0.299838 36.733513 -0.591028 0.000000 0.000000 0.000000 14.170258 -1.438448 -0.889704 58.565424 9.731301 -5.630161 -3.629925 -48.808876 2.519057 0.000000 0.000000 0.000000 
0.000962 0.988827 -0.009631 -0.451932 -3.607752 0.285300 5.673806 -0.304230 -6.809522 -6.142313 0.468580 -18.267271 60.529232 26.528341 116.785808 0.000000 0.000000 0.000000 -0.267192 0.894051 -8.998923 5.220519 -0.336188 -14.874686 -63.958193 -28.042451 117.211149 0.000000 0.000000 0.000000 1.517453 -0.256889 4.572214 0.922696 1.175935 -42.337046 0.545170 2.666316 44.714385 -3.682442 3.763217 -79.476402 0.000000 0.000000 0.000000 -21.105357 2.737584 -2.079444 -49.563173 -10.355160 -6.053328 1.252761 39.800141 0.009006 0.000000 0.000000 0.000000 14.404394 -1.902752 -1.160645 58.189309 8.853562 -6.096489 -1.186041 -55.592817 1.767294 0.000000 0.000000 0.000000 
0.000756 0.989649 -0.013574 -0.257951 -3.719063 0.908811 5.719257 -0.333726 -7.442625 -5.951336 0.480453 -18.354672 58.563796 26.728750 115.874560 0.000000 0.000000 0.000000 -0.639260 0.953309 -9.766000 5.775231 -0.312432 -14.824466 -63.577163 -27.865796 117.419373 0.000000 0.000000 0.000000 1.361030 -0.262374 4.774796 1.191851 1.235080 -43.683288 0.490943 2.426284 45.826157 -3.957472 3.803471 -79.499957 0.000000 0.000000 0.000000 -21.737648 4.406194 -3.010248 -49.591218 -7.641689 -7.255645 4.628576 42.957586 1.485156 0.000000 0.000000 0.000000 14.540292 -3.136818 -1.841251 58.964205 7.837851 -6.782784 -0.589727 -65.991745 2.204395 0.000000 0.000000 0.000000 
0.000277 0.989868 -0.017855 -0.175592 -3.025551 1.196875 5.579124 -0.399019 -8.510808 -5.703105 0.464613 -17.703214 58.422103 26.780051 115.173636 0.000000 0.000000 0.000000 -0.697195 1.045038 -10.746113 5.440318 -0.358182 -14.255301 -62.349320 -27.358993 118.508347 0.000000 0.000000 0.000000 1.181840 -0.266194 5.007487 0.772547 1.248020 -44.272730 0.455208 1.693084 46.387568 -4.856350 3.883279 -80.627135 0.000000 0.000000 0.000000 -22.217079 5.455727 -3.593045 -49.775145 -5.370836 -8.262795 14.090872 50.347616 6.715743 0.000000 0.000000 0.000000 14.702540 -3.342405 -1.986292 59.140425 6.203869 -7.698381 7.449486 -77.385427 -3.408503 0.000000 0.000000 0.000000 
-0.000208 0.989495 -0.021488 -0.295278 -2.782718 1.967938 5.824781 -0.433829 -9.498183 -5.497161 0.462389 -17.668700 58.065228 26.872984 114.704873 0.000000 0.000000 0.000000 -0.320022 1.194784 -11.981901 5.153383 -0.383732 -13.466107 -61.630575 -27.255943 118.722847 0.000000 0.000000 0.000000 1.116392 -0.238676 4.433033 0.911490 1.254717 -45.007719 0.323531 1.572272 47.513607 -4.056261 3.810162 -80.942755 0.000000 0.000000 0.000000 -21.531907 6.524320 -4.126300 -51.174066 -3.262657 -9.416710 29.251925 60.829658 18.342154 0.000000 0.000000 0.000000 14.530913 -4.670294 -2.631404 59.221124 4.221826 -8.803234 38.289854 -87.301568 -33.199913 0.000000 0.000000 0.000000 
-0.000558 0.989546 -0.023908 -0.233692 -2.637810 2.175350 5.862827 -0.465824 -10.313339 -5.038148 0.475441 -16.595949 57.263003 26.861738 114.386492 0.000000 0.000000 0.000000 -0.000225 1.325082 -13.002907 4.549565 -0.405060 -12.773191 -60.998048 -26.726619 119.749602 0.000000 0.000000 0.000000 0.846180 -0.223147 4.398292 0.917718 1.256372 -45.273202 0.129645 1.263446 47.753704 -4.294516 3.854279 -81.430746 0.000000 0.000000 0.000000 -21.442918 7.553961 -4.657840 -52.327058 -2.135700 -10.088095 60.618526 70.243818 46.926789 0.000000 0.000000 0.000000 13.988443 -5.424633 -3.016924 59.209787 1.159722 -10.309378 169.050573 -85.538060 -164.477455 0.000000 0.000000 0.000000 
-0.000597 0.989882 -0.025361 -0.360227 -2.200503 2.469857 6.010869 -0.478019 -10.643112 -4.821017 0.466866 -16.359190 57.595997 27.017848 113.781779 0.000000 0.000000 0.000000 0.271835 1.411132 -13.627091 4.324493 -0.419884 -12.589509 -60.993153 -26.812851 119.925358 0.000000 0.000000 0.000000 0.773538 -0.189798 3.732616 0.862352 1.225525 -45.234161 -0.165326 0.688002 47.960950 -3.447174 3.843554 -81.066908 0.000000 0.000000 0.000000 -20.860125 8.203763 -4.878034 -54.830412 -0.635480 -11.131370 96.958090 71.814781 82.270302 0.000000 0.000000 0.000000 13.472365 -6.131120 -3.382320 59.592331 -1.550914 -11.699658 176.233765 -80.078176 -171.663530 0.000000 0.000000 0.000000 
-0.000567 0.990029 -0.026301 -0.360368 -2.304520 2.448910 6.021582 -0.473117 -10.603888 -4.674414 0.474366 -16.037493 57.168491 27.054458 113.619105 0.000000 0.000000 0.000000 0.369928 1.450564 -13.900434 4.159484 -0.419445 -12.517136 -60.161124 -26.451019 120.344304 0.000000 0.000000 0.000000 0.783625 -0.181283 3.541048 0.695085 1.231300 -44.997949 -0.236989 0.593593 47.704581 -3.656357 3.872943 -80.406979 0.000000 0.000000 0.000000 -21.092680 8.252800 -4.893903 -55.567768 -0.415549 -11.323929 114.552575 72.120568 101.423192 0.000000 0.000000 0.000000 13.633392 -6.186580 -3.464543 59.982638 -3.022873 -12.457554 169.873421 -76.710686 -163.429294 0.000000 0.000000 0.000000 
-0.000405 0.990637 -0.027009 -0.226265 -2.877211 2.611881 5.825374 -0.483642 -10.696101 -4.337697 0.499845 -15.857193 56.092368 27.325033 112.971576 0.000000 0.000000 0.000000 0.372179 1.528583 -14.558238 4.253841 -0.405944 -12.068557 -60.188198 -26.723004 119.368163 0.000000 0.000000 0.000000 0.624566 -0.155495 3.138024 0.813230 1.250870 -44.655442 -0.194605 0.626286 47.069519 -3.489967 3.899202 -79.339243 0.000000 0.000000 0.000000 -21.046283 7.511881 -4.353329 -56.395895 -0.035970 -11.546222 120.217338 75.026428 110.776266 0.000000 0.000000 0.000000 13.091331 -6.168575 -3.475579 61.278891 -4.157576 -13.184168 160.362397 -74.862470 -150.978402 0.000000 0.000000 0.000000 
-0.000213 0.990940 -0.027748 -0.184529 -3.422082 2.760655 5.740965 -0.475502 -10.513752 -4.153224 0.521178 -15.944479 55.069607 27.426114 112.757892 0.000000 0.000000 0.000000 0.556065 1.604910 -15.026433 4.316040 -0.395934 -11.389890 -59.177951 -26.695852 118.687194 0.000000 0.000000 0.000000 0.415902 -0.128682 2.738081 1.133503 1.262360 -44.397484 -0.454326 0.338685 46.633817 -2.793514 3.911653 -78.675951 0.000000 0.000000 0.000000 -21.752414 7.169432 -4.039496 -56.434974 -1.210617 -11.000596 120.287966 79.987234 115.721682 0.000000 0.000000 0.000000 12.944371 -5.893537 -3.453942 61.965184 -4.299906 -13.386291 152.194635 -73.558664 -140.368490 0.000000 0.000000 0.000000 
